<?xml version="1.0" encoding="UTF-8"?>
<svg xmlns="http://www.w3.org/2000/svg" viewBox="0 0 900 280" width="900" height="280">
  <title>VibeCraft — An Original RTS · RPG</title>

  <defs>
    <!-- Sky gradient -->
    <linearGradient id="sky" x1="0" y1="0" x2="0" y2="1">
      <stop offset="0%"   stop-color="#050810"/>
      <stop offset="55%"  stop-color="#0d1e3c"/>
      <stop offset="100%" stop-color="#1c3f6e"/>
    </linearGradient>
    <!-- Ground shadow -->
    <linearGradient id="gndShadow" x1="0" y1="0" x2="0" y2="1">
      <stop offset="0%" stop-color="#000000" stop-opacity="0.45"/>
      <stop offset="100%" stop-color="#000000" stop-opacity="0"/>
    </linearGradient>
    <!-- Title glow filter -->
    <filter id="glow" x="-20%" y="-40%" width="140%" height="180%">
      <feGaussianBlur in="SourceGraphic" stdDeviation="5" result="blur"/>
      <feMerge>
        <feMergeNode in="blur"/>
        <feMergeNode in="SourceGraphic"/>
      </feMerge>
    </filter>
    <!-- Stone border pattern -->
    <pattern id="stone" x="0" y="0" width="16" height="16" patternUnits="userSpaceOnUse">
      <rect width="16" height="16" fill="#3a3030"/>
      <rect x="0" y="0" width="7" height="7" fill="#443838"/>
      <rect x="8" y="0" width="8" height="7" fill="#3e3232"/>
      <rect x="0" y="8" width="8" height="8" fill="#3c3030"/>
      <rect x="9" y="8" width="7" height="8" fill="#423636"/>
      <rect x="0"  y="0"  width="16" height="1" fill="#25201f" opacity="0.5"/>
      <rect x="0"  y="7"  width="16" height="1" fill="#25201f" opacity="0.4"/>
      <rect x="0"  y="15" width="16" height="1" fill="#25201f" opacity="0.5"/>
      <rect x="7"  y="0"  width="1"  height="8" fill="#25201f" opacity="0.4"/>
      <rect x="0"  y="8"  width="8"  height="1" fill="#25201f" opacity="0.3"/>
    </pattern>
    <!-- Subtle vignette -->
    <radialGradient id="vignette" cx="50%" cy="50%" r="70%">
      <stop offset="0%"   stop-color="#000000" stop-opacity="0"/>
      <stop offset="100%" stop-color="#000000" stop-opacity="0.6"/>
    </radialGradient>
  </defs>

  <!-- ── Stone border frame ── -->
  <rect x="0" y="0" width="900" height="280" fill="url(#stone)"/>
  <rect x="8" y="8" width="884" height="264" fill="#050810"/>

  <!-- ── Sky background ── -->
  <rect x="8" y="8" width="884" height="264" fill="url(#sky)"/>

  <!-- Stars -->
  <g fill="#ffffff">
    <circle cx="30"  cy="22"  r="0.8" opacity="0.9"/>
    <circle cx="67"  cy="15"  r="1.1" opacity="0.8"/>
    <circle cx="110" cy="30"  r="0.7" opacity="0.7"/>
    <circle cx="152" cy="18"  r="1.0" opacity="0.9"/>
    <circle cx="198" cy="25"  r="0.8" opacity="0.6"/>
    <circle cx="235" cy="13"  r="1.2" opacity="0.85"/>
    <circle cx="280" cy="32"  r="0.7" opacity="0.7"/>
    <circle cx="310" cy="20"  r="0.9" opacity="0.9"/>
    <circle cx="350" cy="12"  r="0.8" opacity="0.75"/>
    <circle cx="385" cy="29"  r="1.1" opacity="0.8"/>
    <circle cx="430" cy="17"  r="0.7" opacity="0.9"/>
    <circle cx="470" cy="34"  r="0.9" opacity="0.65"/>
    <circle cx="515" cy="15"  r="1.0" opacity="0.8"/>
    <circle cx="550" cy="24"  r="0.8" opacity="0.9"/>
    <circle cx="590" cy="11"  r="1.1" opacity="0.7"/>
    <circle cx="630" cy="28"  r="0.7" opacity="0.85"/>
    <circle cx="670" cy="19"  r="0.9" opacity="0.9"/>
    <circle cx="710" cy="32"  r="0.8" opacity="0.7"/>
    <circle cx="755" cy="14"  r="1.2" opacity="0.8"/>
    <circle cx="795" cy="26"  r="0.7" opacity="0.9"/>
    <circle cx="835" cy="16"  r="1.0" opacity="0.75"/>
    <circle cx="870" cy="30"  r="0.8" opacity="0.65"/>
    <circle cx="44"  cy="50"  r="0.7" opacity="0.5"/>
    <circle cx="125" cy="55"  r="0.8" opacity="0.4"/>
    <circle cx="200" cy="48"  r="0.7" opacity="0.5"/>
    <circle cx="320" cy="52"  r="0.9" opacity="0.45"/>
    <circle cx="490" cy="46"  r="0.7" opacity="0.4"/>
    <circle cx="640" cy="53"  r="0.8" opacity="0.5"/>
    <circle cx="810" cy="47"  r="0.9" opacity="0.4"/>
  </g>

  <!-- Moon -->
  <circle cx="800" cy="38" r="22" fill="#d4c88a" opacity="0.92"/>
  <circle cx="790" cy="31" r="18" fill="#1c3f6e" opacity="0.9"/>
  <!-- Moon craters -->
  <circle cx="812" cy="48" r="3.5" fill="#c0b478" opacity="0.5"/>
  <circle cx="821" cy="34" r="2.5" fill="#c0b478" opacity="0.4"/>
  <circle cx="808" cy="27" r="2"   fill="#c0b478" opacity="0.4"/>

  <!-- ── Horizon glow ── -->
  <rect x="8" y="148" width="884" height="16" fill="#1c5c28" opacity="0.4"/>

  <!-- ═══════════════════════════════════════════
       TERRAIN TILES  (y=152 … y=272, 28×28 px)
       cols 0-31, rows 0-3  → 32×4 = 896×112 px
       origin x=10, y=156
       ═══════════════════════════════════════════ -->

  <!-- Helper: draw tiles as horizontal bands per row, then punch details -->

  <!-- ROW 0  (y=156) ─ mostly grass, small patches of colour at edges -->
  <!-- all-grass base for row 0 -->
  <rect x="10" y="156" width="880" height="28" fill="#3cb343"/>
  <!-- dark-grass variation spots -->
  <rect x="10"  y="156" width="56" height="28" fill="#287828"/>
  <rect x="66"  y="156" width="28" height="28" fill="#287828"/>
  <!-- trees patch col 4-10 -->
  <rect x="122" y="156" width="196" height="28" fill="#228b22"/>
  <!-- trees darker canopy lines -->
  <rect x="122" y="160" width="196" height="4"  fill="#1a5c1a"/>
  <rect x="122" y="170" width="196" height="4"  fill="#1a5c1a"/>
  <rect x="122" y="180" width="196" height="3"  fill="#1a5c1a"/>
  <!-- water center col 14-16 -->
  <rect x="402" y="156" width="84"  height="28" fill="#1e90ff"/>
  <rect x="402" y="157" width="84"  height="6"  fill="#1464b4"/>
  <rect x="402" y="169" width="84"  height="5"  fill="#1464b4"/>
  <!-- trees right patch col 22-26 -->
  <rect x="626" y="156" width="112" height="28" fill="#228b22"/>
  <rect x="626" y="160" width="112" height="4"  fill="#1a5c1a"/>
  <rect x="626" y="172" width="112" height="4"  fill="#1a5c1a"/>

  <!-- ROW 1  (y=184) -->
  <rect x="10"  y="184" width="880" height="28" fill="#3cb343"/>
  <rect x="10"  y="184" width="28"  height="28" fill="#287828"/>
  <!-- trees col 4-10 -->
  <rect x="122" y="184" width="196" height="28" fill="#228b22"/>
  <rect x="122" y="188" width="196" height="4"  fill="#1a5c1a"/>
  <rect x="122" y="198" width="196" height="4"  fill="#1a5c1a"/>
  <rect x="122" y="207" width="196" height="3"  fill="#1a5c1a"/>
  <!-- water col 13-17 -->
  <rect x="374" y="184" width="140" height="28" fill="#1e90ff"/>
  <rect x="374" y="185" width="140" height="5"  fill="#1464b4"/>
  <rect x="374" y="197" width="140" height="5"  fill="#1464b4"/>
  <!-- trees right col 22-27 -->
  <rect x="626" y="184" width="140" height="28" fill="#228b22"/>
  <rect x="626" y="188" width="140" height="4"  fill="#1a5c1a"/>
  <rect x="626" y="200" width="140" height="4"  fill="#1a5c1a"/>

  <!-- ROW 2  (y=212) -->
  <rect x="10"  y="212" width="880" height="28" fill="#3cb343"/>
  <rect x="10"  y="212" width="28"  height="28" fill="#287828"/>
  <!-- trees col 4-7 only -->
  <rect x="122" y="212" width="84"  height="28" fill="#228b22"/>
  <rect x="122" y="216" width="84"  height="4"  fill="#1a5c1a"/>
  <rect x="122" y="225" width="84"  height="3"  fill="#1a5c1a"/>
  <!-- water col 12-17 -->
  <rect x="346" y="212" width="168" height="28" fill="#1e90ff"/>
  <rect x="346" y="213" width="168" height="5"  fill="#1464b4"/>
  <rect x="346" y="224" width="168" height="5"  fill="#1464b4"/>
  <!-- rock col 19-21 -->
  <rect x="542" y="212" width="84"  height="28" fill="#787878"/>
  <rect x="542" y="212" width="84"  height="3"  fill="#909090"/>
  <rect x="542" y="220" width="84"  height="3"  fill="#505050"/>
  <!-- trees right col 23-25 -->
  <rect x="654" y="212" width="56"  height="28" fill="#228b22"/>

  <!-- ROW 3  (y=240) -->
  <rect x="10"  y="240" width="880" height="28" fill="#3cb343"/>
  <!-- water col 12-14 -->
  <rect x="346" y="240" width="84"  height="28" fill="#1e90ff"/>
  <rect x="346" y="241" width="84"  height="5"  fill="#1464b4"/>
  <rect x="346" y="252" width="84"  height="5"  fill="#1464b4"/>
  <!-- rock col 18-22 -->
  <rect x="514" y="240" width="140" height="28" fill="#787878"/>
  <rect x="514" y="240" width="140" height="3"  fill="#909090"/>
  <rect x="514" y="249" width="140" height="3"  fill="#505050"/>
  <rect x="514" y="258" width="140" height="4"  fill="#404040"/>
  <!-- gold mine col 25 -->
  <rect x="710" y="240" width="28"  height="28" fill="#654321"/>
  <rect x="714" y="244" width="20"  height="20" fill="#7a5230"/>
  <rect x="716" y="246" width="16"  height="16" fill="#dcb400"/>
  <rect x="718" y="248" width="12"  height="12" fill="#a08200"/>
  <rect x="720" y="250" width="8"   height="8"  fill="#dcb400"/>
  <!-- gold mine entrance -->
  <rect x="718" y="256" width="8"   height="12" fill="#000000" opacity="0.7"/>
  <!-- dark-grass patch right -->
  <rect x="766" y="240" width="124" height="28" fill="#287828"/>

  <!-- Tile grid overlay (very subtle) -->
  <line x1="10" y1="156" x2="890" y2="156" stroke="#000000" stroke-width="0.5" opacity="0.12"/>
  <line x1="10" y1="184" x2="890" y2="184" stroke="#000000" stroke-width="0.5" opacity="0.12"/>
  <line x1="10" y1="212" x2="890" y2="212" stroke="#000000" stroke-width="0.5" opacity="0.12"/>
  <line x1="10" y1="240" x2="890" y2="240" stroke="#000000" stroke-width="0.5" opacity="0.12"/>

  <!-- Ground shadow at horizon -->
  <rect x="8" y="152" width="884" height="30" fill="url(#gndShadow)"/>

  <!-- ═══════════════════
       BUILDINGS
       ═══════════════════ -->

  <!-- Human Castle (left side, tiles 1-2, row 0-1, x=38 y=156) -->
  <g transform="translate(38,148)">
    <!-- Castle base -->
    <rect x="0"  y="20" width="56" height="44" fill="#b8a080"/>
    <rect x="0"  y="20" width="56" height="3"  fill="#d4bc98"/>
    <!-- Castle wall stones -->
    <rect x="2"  y="25" width="12" height="10" fill="#c8ac88"/>
    <rect x="16" y="25" width="12" height="10" fill="#bca070"/>
    <rect x="30" y="25" width="12" height="10" fill="#c8ac88"/>
    <rect x="44" y="25" width="10" height="10" fill="#bca070"/>
    <rect x="2"  y="37" width="12" height="10" fill="#bca070"/>
    <rect x="16" y="37" width="12" height="10" fill="#c8ac88"/>
    <rect x="30" y="37" width="12" height="10" fill="#bca070"/>
    <rect x="44" y="37" width="10" height="10" fill="#c8ac88"/>
    <!-- Castle gate (door) -->
    <rect x="20" y="44" width="16" height="20" fill="#3a2810"/>
    <rect x="22" y="44" width="12" height="14" rx="6" fill="#2a1c08"/>
    <!-- Castle towers (left + right) -->
    <rect x="-6"  y="8"  width="16" height="36" fill="#c0a878"/>
    <rect x="46"  y="8"  width="16" height="36" fill="#c0a878"/>
    <!-- Tower tops (crenellations) -->
    <rect x="-6"  y="4"  width="4"  height="6"  fill="#c8b080"/>
    <rect x="2"   y="4"  width="4"  height="6"  fill="#c8b080"/>
    <rect x="46"  y="4"  width="4"  height="6"  fill="#c8b080"/>
    <rect x="54"  y="4"  width="4"  height="6"  fill="#c8b080"/>
    <!-- Castle main tower crenellations -->
    <rect x="0"   y="16" width="6"  height="6"  fill="#c8b080"/>
    <rect x="8"   y="16" width="6"  height="6"  fill="#c8b080"/>
    <rect x="16"  y="16" width="6"  height="6"  fill="#c8b080"/>
    <rect x="24"  y="16" width="6"  height="6"  fill="#c8b080"/>
    <rect x="32"  y="16" width="6"  height="6"  fill="#c8b080"/>
    <rect x="40"  y="16" width="6"  height="6"  fill="#c8b080"/>
    <rect x="48"  y="16" width="6"  height="6"  fill="#c8b080"/>
    <!-- Blue banner (Human) -->
    <rect x="24"  y="0"  width="3"  height="18" fill="#8c6c44"/>
    <polygon points="27,0 38,5 27,10" fill="#3366cc"/>
  </g>

  <!-- Orc Stronghold (right side, tile ~28, row 0-1, x=766 y=156) -->
  <g transform="translate(760,148)">
    <!-- Stronghold base (darker, more brutal) -->
    <rect x="0"  y="22" width="56" height="42" fill="#6b4c2c"/>
    <rect x="0"  y="22" width="56" height="3"  fill="#7e5c38"/>
    <!-- Skull decoration above entrance -->
    <rect x="4"  y="27" width="10" height="8"  fill="#5a3c20"/>
    <rect x="16" y="27" width="10" height="8"  fill="#6b4c2c"/>
    <rect x="28" y="27" width="10" height="8"  fill="#5a3c20"/>
    <rect x="40" y="27" width="12" height="8"  fill="#6b4c2c"/>
    <rect x="4"  y="37" width="10" height="8"  fill="#6b4c2c"/>
    <rect x="16" y="37" width="10" height="8"  fill="#5a3c20"/>
    <rect x="28" y="37" width="10" height="8"  fill="#6b4c2c"/>
    <rect x="40" y="37" width="12" height="8"  fill="#5a3c20"/>
    <!-- Stronghold gate -->
    <rect x="18" y="44" width="20" height="20" fill="#1a0e04"/>
    <rect x="19" y="44" width="18" height="14" rx="9" fill="#140a02"/>
    <!-- Iron spikes on gate -->
    <polygon points="20,44 22,38 24,44" fill="#888888"/>
    <polygon points="26,44 28,38 30,44" fill="#888888"/>
    <polygon points="32,44 34,38 36,44" fill="#888888"/>
    <!-- Towers -->
    <rect x="-8"  y="6"  width="18" height="38" fill="#7a5838"/>
    <rect x="46"  y="6"  width="18" height="38" fill="#7a5838"/>
    <!-- Tower teeth -->
    <rect x="-8"  y="0"  width="5"  height="8"  fill="#5a3c20"/>
    <rect x="1"   y="0"  width="5"  height="8"  fill="#5a3c20"/>
    <rect x="46"  y="0"  width="5"  height="8"  fill="#5a3c20"/>
    <rect x="55"  y="0"  width="5"  height="8"  fill="#5a3c20"/>
    <rect x="0"   y="14" width="5"  height="8"  fill="#5a3c20"/>
    <rect x="8"   y="14" width="5"  height="8"  fill="#5a3c20"/>
    <rect x="16"  y="14" width="5"  height="8"  fill="#5a3c20"/>
    <rect x="24"  y="14" width="5"  height="8"  fill="#5a3c20"/>
    <rect x="32"  y="14" width="5"  height="8"  fill="#5a3c20"/>
    <rect x="40"  y="14" width="5"  height="8"  fill="#5a3c20"/>
    <rect x="48"  y="14" width="5"  height="8"  fill="#5a3c20"/>
    <!-- Red banner (Orc) -->
    <rect x="24"  y="0"  width="3"  height="16" fill="#5a3c20"/>
    <polygon points="24,0 24,10 13,5" fill="#cc3300"/>
  </g>

  <!-- ═══════════════════
       UNITS
       ═══════════════════ -->

  <!-- Footman #1 (x=210, y=194) -->
  <g transform="translate(210,194)">
    <!-- Shield (blue) -->
    <rect x="0"  y="5" width="7" height="9" rx="1" fill="#2255aa"/>
    <rect x="1"  y="6" width="5" height="7" rx="1" fill="#3366cc"/>
    <rect x="2"  y="7" width="3" height="5" fill="#4477dd" opacity="0.7"/>
    <!-- Body (silver) -->
    <rect x="5"  y="6" width="9" height="10" fill="#aaaaaa"/>
    <rect x="6"  y="6" width="7" height="2"  fill="#cccccc"/>
    <!-- Helmet -->
    <rect x="6"  y="0" width="8" height="8"  rx="2" fill="#888888"/>
    <rect x="7"  y="0" width="6" height="4"  rx="1" fill="#aaaaaa"/>
    <!-- Sword -->
    <rect x="14" y="2" width="2" height="14" fill="#dddddd"/>
    <rect x="11" y="5" width="8" height="2"  fill="#aaaaaa"/>
    <!-- Legs -->
    <rect x="6"  y="16" width="3" height="5" fill="#666666"/>
    <rect x="10" y="16" width="3" height="5" fill="#666666"/>
  </g>

  <!-- Footman #2 (x=228, y=198) -->
  <g transform="translate(228,198)">
    <rect x="0"  y="5" width="7" height="9" rx="1" fill="#2255aa"/>
    <rect x="1"  y="6" width="5" height="7" rx="1" fill="#3366cc"/>
    <rect x="5"  y="6" width="9" height="10" fill="#aaaaaa"/>
    <rect x="6"  y="6" width="7" height="2"  fill="#cccccc"/>
    <rect x="6"  y="0" width="8" height="8"  rx="2" fill="#888888"/>
    <rect x="7"  y="0" width="6" height="4"  rx="1" fill="#aaaaaa"/>
    <rect x="14" y="2" width="2" height="14" fill="#dddddd"/>
    <rect x="11" y="5" width="8" height="2"  fill="#aaaaaa"/>
    <rect x="6"  y="16" width="3" height="5" fill="#666666"/>
    <rect x="10" y="16" width="3" height="5" fill="#666666"/>
  </g>

  <!-- Grunt #1 (x=646, y=194) -->
  <g transform="translate(646,194)">
    <!-- Axe -->
    <rect x="-2" y="1" width="3"  height="16" fill="#8b6914"/>
    <polygon points="-5,1 4,1 4,10 -2,10" fill="#888888"/>
    <rect x="-3" y="1" width="2" height="3"  fill="#999999"/>
    <!-- Body (dark red/brown leather) -->
    <rect x="3"  y="6" width="10" height="10" fill="#8b2200"/>
    <rect x="4"  y="6" width="8"  height="2"  fill="#aa3300"/>
    <!-- Helm (darker, studded) -->
    <rect x="3"  y="0" width="10" height="8"  rx="2" fill="#5c3a1e"/>
    <rect x="4"  y="1" width="8"  height="3"  fill="#7a4c28"/>
    <circle cx="5"  cy="2" r="1" fill="#555"/>
    <circle cx="9"  cy="2" r="1" fill="#555"/>
    <circle cx="13" cy="2" r="1" fill="#555"/>
    <!-- Legs -->
    <rect x="4"  y="16" width="3" height="5" fill="#4a2810"/>
    <rect x="8"  y="16" width="3" height="5" fill="#4a2810"/>
  </g>

  <!-- Grunt #2 (x=664, y=198) -->
  <g transform="translate(664,198)">
    <rect x="-2" y="1" width="3"  height="16" fill="#8b6914"/>
    <polygon points="-5,1 4,1 4,10 -2,10" fill="#888888"/>
    <rect x="-3" y="1" width="2" height="3"  fill="#999999"/>
    <rect x="3"  y="6" width="10" height="10" fill="#8b2200"/>
    <rect x="4"  y="6" width="8"  height="2"  fill="#aa3300"/>
    <rect x="3"  y="0" width="10" height="8"  rx="2" fill="#5c3a1e"/>
    <rect x="4"  y="1" width="8"  height="3"  fill="#7a4c28"/>
    <circle cx="5"  cy="2" r="1" fill="#555"/>
    <circle cx="9"  cy="2" r="1" fill="#555"/>
    <circle cx="13" cy="2" r="1" fill="#555"/>
    <rect x="4"  y="16" width="3" height="5" fill="#4a2810"/>
    <rect x="8"  y="16" width="3" height="5" fill="#4a2810"/>
  </g>

  <!-- Gryphon (flying, Human air unit) at x=280, y=100 -->
  <g transform="translate(280,100)">
    <!-- Wings -->
    <polygon points="-24,8 -6,0 0,10"   fill="#c8a800" opacity="0.9"/>
    <polygon points="-24,8 -6,0 -10,14" fill="#b09000" opacity="0.8"/>
    <polygon points="24,8 6,0 0,10"     fill="#c8a800" opacity="0.9"/>
    <polygon points="24,8 6,0 10,14"    fill="#b09000" opacity="0.8"/>
    <!-- Wing highlight -->
    <polygon points="-20,7 -8,2 -4,8"   fill="#e0b800" opacity="0.5"/>
    <polygon points="20,7 8,2 4,8"      fill="#e0b800" opacity="0.5"/>
    <!-- Body (eagle) -->
    <ellipse cx="0" cy="10" rx="8" ry="6" fill="#c8a800"/>
    <ellipse cx="0" cy="9"  rx="6" ry="4" fill="#e0b800"/>
    <!-- Rider (human) -->
    <rect x="-3" y="2"  width="6" height="6" fill="#aaaaaa"/>
    <rect x="-2" y="0"  width="4" height="3" rx="1" fill="#888888"/>
    <rect x="-1" y="-2" width="2" height="4" fill="#4477dd"/>
    <!-- Beak -->
    <polygon points="7,9 14,12 7,14"    fill="#c8a800"/>
    <!-- Tail feathers -->
    <polygon points="-8,12 -18,18 -6,16" fill="#c8a800" opacity="0.8"/>
    <!-- Talons -->
    <rect x="-3" y="15" width="2" height="3" fill="#888"/>
    <rect x="1"  y="15" width="2" height="3" fill="#888"/>
  </g>

  <!-- Dragon (flying, Orc air unit) at x=620, y=95 -->
  <g transform="translate(620,95)">
    <!-- Wings (large, bat-like, dark) -->
    <polygon points="-32,12 -8,0 0,14"   fill="#5c1a00" opacity="0.9"/>
    <polygon points="-32,12 -8,0 -12,20" fill="#4a1400" opacity="0.8"/>
    <polygon points="32,12 8,0 0,14"     fill="#5c1a00" opacity="0.9"/>
    <polygon points="32,12 8,0 12,20"    fill="#4a1400" opacity="0.8"/>
    <!-- Wing membrane lines -->
    <line x1="-8" y1="0" x2="-28" y2="16" stroke="#6e2000" stroke-width="0.8"/>
    <line x1="-8" y1="0" x2="-20" y2="18" stroke="#6e2000" stroke-width="0.8"/>
    <line x1="8"  y1="0" x2="28"  y2="16" stroke="#6e2000" stroke-width="0.8"/>
    <line x1="8"  y1="0" x2="20"  y2="18" stroke="#6e2000" stroke-width="0.8"/>
    <!-- Body (big, dark green serpentine) -->
    <ellipse cx="0" cy="12" rx="12" ry="8"  fill="#2d6e1a"/>
    <ellipse cx="0" cy="11" rx="10" ry="6"  fill="#3c8a22"/>
    <!-- Head -->
    <ellipse cx="12" cy="8" rx="8" ry="6"  fill="#2d6e1a"/>
    <ellipse cx="13" cy="7" rx="6" ry="4"  fill="#3c8a22"/>
    <!-- Horns -->
    <polygon points="10,4 8,-2 12,3"  fill="#8b6914"/>
    <polygon points="14,3 14,-3 17,3" fill="#8b6914"/>
    <!-- Eye (red glow) -->
    <circle cx="15" cy="7" r="2"   fill="#cc0000"/>
    <circle cx="15" cy="7" r="1"   fill="#ff4400"/>
    <!-- Nostrils / fire breath -->
    <rect x="18" y="8" width="10" height="3" rx="1" fill="#ff6600" opacity="0.8"/>
    <rect x="22" y="7" width="14" height="2" rx="1" fill="#ff9900" opacity="0.6"/>
    <rect x="25" y="9" width="8"  height="2" rx="1" fill="#ffcc00" opacity="0.5"/>
    <!-- Orc rider -->
    <rect x="-4" y="3"  width="8"  height="7"  fill="#8b2200"/>
    <rect x="-3" y="0"  width="6"  height="5"  rx="1" fill="#5c3a1e"/>
    <!-- Tail -->
    <polygon points="-12,16 -26,26 -8,20" fill="#2d6e1a"/>
    <!-- Talons -->
    <rect x="-4" y="19" width="2" height="4" fill="#556"/>
    <rect x="0"  y="19" width="2" height="4" fill="#556"/>
  </g>

  <!-- Peasant worker near gold mine (x=706, y=240) -->
  <g transform="translate(700,234)">
    <!-- Pick axe -->
    <rect x="8"  y="2"  width="2"  height="12" fill="#8b6914"/>
    <polygon points="7,2 16,2 16,6 10,6"    fill="#888888"/>
    <!-- Body -->
    <rect x="0"  y="8"  width="8"  height="8"  fill="#c89050"/>
    <rect x="1"  y="8"  width="6"  height="2"  fill="#d8a060"/>
    <!-- Head with hat -->
    <rect x="1"  y="2"  width="6"  height="6"  rx="1" fill="#f0c880"/>
    <rect x="0"  y="2"  width="8"  height="2"  fill="#8b4513"/>
    <rect x="-1" y="0"  width="10" height="2"  fill="#7a3c10"/>
    <!-- Legs -->
    <rect x="1"  y="16" width="2"  height="4"  fill="#8b4513"/>
    <rect x="5"  y="16" width="2"  height="4"  fill="#8b4513"/>
  </g>

  <!-- ═══════════════════════════════════════════
       TITLE + UI OVERLAY
       ═══════════════════════════════════════════ -->

  <!-- Dark panel behind title (semi-transparent) -->
  <rect x="8" y="8" width="884" height="148" fill="#000000" opacity="0.38"/>

  <!-- Decorative horizontal rule lines -->
  <rect x="60"  y="116" width="780" height="1" fill="#dcb400" opacity="0.4"/>
  <rect x="60"  y="146" width="780" height="1" fill="#dcb400" opacity="0.3"/>

  <!-- Human Alliance badge (left) -->
  <g transform="translate(58,50)">
    <polygon points="20,0 40,10 40,32 20,42 0,32 0,10" fill="#2255aa" opacity="0.85"/>
    <polygon points="20,3 37,12 37,30 20,39 3,30 3,12"  fill="#3366cc" opacity="0.6"/>
    <!-- Sword icon -->
    <rect x="18" y="8"  width="4"  height="22" fill="#dddddd"/>
    <rect x="12" y="14" width="16" height="3"  fill="#aaaaaa"/>
    <polygon points="18,8 22,8 20,4" fill="#eeeeee"/>
  </g>

  <!-- Orc Horde badge (right) -->
  <g transform="translate(822,50)">
    <polygon points="20,0 40,10 40,32 20,42 0,32 0,10" fill="#881100" opacity="0.85"/>
    <polygon points="20,3 37,12 37,30 20,39 3,30 3,12"  fill="#aa2200" opacity="0.6"/>
    <!-- Skull icon (simplified) -->
    <ellipse cx="20" cy="18" rx="9" ry="10" fill="#ddaa44" opacity="0.9"/>
    <ellipse cx="20" cy="16" rx="7" ry="8"  fill="#eebb55" opacity="0.7"/>
    <rect x="14" y="24" width="4"  height="4" fill="#ddaa44" opacity="0.9"/>
    <rect x="22" y="24" width="4"  height="4" fill="#ddaa44" opacity="0.9"/>
    <circle cx="16" cy="17" r="3" fill="#000" opacity="0.7"/>
    <circle cx="24" cy="17" r="3" fill="#000" opacity="0.7"/>
    <rect x="17" y="23" width="6" height="2" fill="#cc8800" opacity="0.8"/>
  </g>

  <!-- Main title "VIBECRAFT" -->
  <!-- Shadow / glow layer -->
  <text x="450" y="76"
        font-family="Georgia, 'Times New Roman', serif"
        font-size="68"
        font-weight="bold"
        text-anchor="middle"
        fill="#dcb400"
        opacity="0.25"
        transform="translate(3,4)">VIBECRAFT</text>
  <!-- Gold outline -->
  <text x="450" y="76"
        font-family="Georgia, 'Times New Roman', serif"
        font-size="68"
        font-weight="bold"
        text-anchor="middle"
        fill="none"
        stroke="#8b6914"
        stroke-width="5"
        filter="url(#glow)">VIBECRAFT</text>
  <!-- Main fill -->
  <text x="450" y="76"
        font-family="Georgia, 'Times New Roman', serif"
        font-size="68"
        font-weight="bold"
        text-anchor="middle"
        fill="#dcb400"
        filter="url(#glow)">VIBECRAFT</text>

  <!-- Decorative dots beside title -->
  <circle cx="102" cy="52" r="3" fill="#dcb400" opacity="0.7"/>
  <circle cx="90"  cy="52" r="2" fill="#dcb400" opacity="0.5"/>
  <circle cx="798" cy="52" r="3" fill="#dcb400" opacity="0.7"/>
  <circle cx="810" cy="52" r="2" fill="#dcb400" opacity="0.5"/>

  <!-- Subtitle -->
  <text x="450" y="100"
        font-family="Georgia, 'Times New Roman', serif"
        font-size="18"
        text-anchor="middle"
        fill="#c8b88a"
        letter-spacing="4">An Original RTS · RPG</text>

  <!-- Faction labels -->
  <text x="108" y="108"
        font-family="Georgia, 'Times New Roman', serif"
        font-size="13"
        font-weight="bold"
        text-anchor="middle"
        fill="#6699ff"
        letter-spacing="1">HUMAN ALLIANCE</text>
  <text x="792" y="108"
        font-family="Georgia, 'Times New Roman', serif"
        font-size="13"
        font-weight="bold"
        text-anchor="middle"
        fill="#ff6633"
        letter-spacing="1">ORC HORDE</text>

  <!-- Feature tags row -->
  <rect x="230" y="124" width="90"  height="18" rx="3" fill="#1a2a10" opacity="0.7"/>
  <rect x="332" y="124" width="90"  height="18" rx="3" fill="#0a1a2a" opacity="0.7"/>
  <rect x="434" y="124" width="90"  height="18" rx="3" fill="#2a1a00" opacity="0.7"/>
  <rect x="536" y="124" width="90"  height="18" rx="3" fill="#1a0a2a" opacity="0.7"/>

  <text x="275" y="136" font-family="Arial, sans-serif" font-size="10"
        text-anchor="middle" fill="#66cc44" letter-spacing="0.5">⚔ GROUND UNITS</text>
  <text x="377" y="136" font-family="Arial, sans-serif" font-size="10"
        text-anchor="middle" fill="#44aaff" letter-spacing="0.5">⚓ NAVAL BATTLE</text>
  <text x="479" y="136" font-family="Arial, sans-serif" font-size="10"
        text-anchor="middle" fill="#ffcc44" letter-spacing="0.5">✦ HERO SYSTEM</text>
  <text x="581" y="136" font-family="Arial, sans-serif" font-size="10"
        text-anchor="middle" fill="#cc88ff" letter-spacing="0.5">✈ AIR COMBAT</text>

  <!-- Vignette overlay -->
  <rect x="8" y="8" width="884" height="264" fill="url(#vignette)"/>

  <!-- Stone border highlight (inner bevel) -->
  <rect x="8"   y="8"   width="884" height="1"   fill="#ffffff" opacity="0.08"/>
  <rect x="8"   y="8"   width="1"   height="264" fill="#ffffff" opacity="0.08"/>
  <rect x="8"   y="271" width="884" height="1"   fill="#000000" opacity="0.3"/>
  <rect x="891" y="8"   width="1"   height="264" fill="#000000" opacity="0.3"/>
  <!-- Outer border -->
  <rect x="0" y="0" width="900" height="280" fill="none"
        stroke="#5a4a2a" stroke-width="2"/>
</svg>
